PathFileType	4	(X/Y/Z)	C:\Users\WrightLab\Desktop\Jo\P3_33.trc
DataRate	CameraRate	NumFrames	NumMarkers	Units	OrigDataRate	OrigDataStartFrame	OrigNumFrames
100.00	100.00	       30	19	mm	100.00	485	       646
Frame#	Time	Headset_Front			Headset_Back			Headset_Left			Headset_Right			Left_Shoulder			Right_Shoulder			Sternum			C7			Left Elbow			Right Elbow			Left Wrist			Right Wrist			Left ASIS			Right ASIS			S2			Left Knee			Right Knee			Left Ankle			Right Ankle			
		X1	Y1	Z1	X2	Y2	Z2	X3	Y3	Z3	X4	Y4	Z4	X5	Y5	Z5	X6	Y6	Z6	X7	Y7	Z7	X8	Y8	Z8	X9	Y9	Z9	X10	Y10	Z10	X11	Y11	Z11	X12	Y12	Z12	X13	Y13	Z13	X14	Y14	Z14	X15	Y15	Z15	X16	Y16	Z16	X17	Y17	Z17	X18	Y18	Z18	X19	Y19	Z19	

485	4.840																-294.33481	1303.41931	-1243.47559										-247.78003	958.35364	-1179.05164													-466.43265	895.63806	-1326.00952										-267.81055	72.30141	-1367.32300	
486	4.850																-297.97684	1305.10156	-1246.70288										-247.47047	958.32556	-1181.72351													-466.05457	895.83514	-1328.24316										-267.77005	71.85301	-1369.04309	
487	4.860																-298.22269	1306.13013	-1249.69324										-246.25081	958.46655	-1185.35889													-464.29349	896.15472	-1337.24072										-267.79547	71.83790	-1369.07776	
488	4.870																-298.72449	1306.65918	-1251.85938										-246.09494	959.08075	-1187.39160													-463.59644	897.04791	-1340.40198										-267.72348	72.36315	-1367.20508	
489	4.880																-298.21335	1307.05066	-1254.23035										-246.21100	959.15967	-1189.41711													-462.51511	897.12372	-1346.32397										-267.75342	72.35383	-1367.24646	
490	4.890																-297.49454	1307.22083	-1257.06104										-246.10393	961.36609	-1193.00916													-461.42932	896.91730	-1352.18457										-267.81119	71.85275	-1369.10083	
491	4.900																												-246.43814	961.20209	-1194.60706													-461.03372	896.63135	-1356.61047										-267.78735	72.38434	-1367.29602	
492	4.910																												-246.13612	961.54169	-1198.14893													-460.04715	896.51349	-1365.35999										-267.71591	72.46212	-1367.20117	
493	4.920																												-246.22778	961.61865	-1199.02625													-459.90219	897.03931	-1368.84302										-268.09137	72.39987	-1369.64124	
494	4.930																												-247.45750	962.37701	-1200.90405													-459.15588	897.81525	-1376.78418										-268.17340	73.09032	-1367.57153	
495	4.940																												-248.76906	962.35901	-1203.57275													-459.13599	897.08270	-1383.66235										-267.88528	72.36679	-1367.43225	
496	4.950																												-250.18658	962.82019	-1204.39832													-459.22064	899.12445	-1386.89209										-268.18762	73.13230	-1367.59436	
497	4.960																												-251.22600	964.54926	-1208.71814													-458.70465	899.28003	-1391.51746										-268.79831	72.56067	-1368.08643	
498	4.970																												-252.64807	964.66376	-1209.89343													-457.57104	900.78931	-1397.75171										-268.88269	72.55063	-1368.20410	
499	4.980																												-253.48174	964.62012	-1210.80615													-456.90842	900.64172	-1403.06726										-269.02951	72.44981	-1368.40320	
500	4.990																												-254.80775	965.16602	-1213.46057													-456.18069	900.72668	-1408.79443										-269.24969	72.32172	-1368.70313	
501	5.000																												-257.27686	965.42615	-1215.39307													-455.56586	900.60883	-1415.05493										-269.31531	72.27735	-1368.79211	
502	5.010																												-258.86832	965.59497	-1217.77466													-455.19998	900.02606	-1421.79871										-269.45532	72.19215	-1368.98267	
503	5.020																												-260.51895	965.85913	-1220.15552													-454.45184	901.01996	-1429.92871										-269.56628	72.13161	-1369.13403	
504	5.030																												-264.35492	966.52905	-1221.82166													-454.20493	901.09344	-1435.95251										-269.66846	72.06992	-1369.27307	
505	5.040																												-266.24475	966.98438	-1224.00073													-454.29642	901.88770	-1442.04980										-270.28271	73.29855	-1368.37305	
506	5.050																												-268.40784	967.62396	-1226.57275													-453.75842	901.57434	-1447.37964										-270.32590	73.32172	-1368.43518	
507	5.060																												-272.38712	967.94708	-1229.65869													-452.44821	904.56970	-1446.23279										-271.34708	72.76035	-1369.22412	
508	5.070																												-274.39374	967.91492	-1231.71802													-451.29788	903.38641	-1460.74377										-271.41550	72.76056	-1369.31995	
509	5.080																												-278.96228	968.49695	-1234.87146													-450.48486	905.41034	-1459.63098										-271.59018	73.00936	-1369.44299	
510	5.090																												-281.46844	969.07605	-1236.10889													-449.26712	902.14270	-1473.26880										-271.67249	73.00135	-1369.55774	
511	5.100																												-286.26266	970.70813	-1239.13550													-448.14865	905.42999	-1472.02893										-272.36530	72.67108	-1370.05835	
512	5.110																												-289.88928	971.02661	-1241.53027													-447.38629	905.51868	-1478.17761										-273.59052	72.76203	-1371.03918	
513	5.120																												-294.74622	971.51196	-1244.49170													-446.26422	903.13599	-1489.26892										-273.80081	73.53463	-1370.11414	
514	5.130																												-299.15540	971.45294	-1246.91602													-444.68201	906.21045	-1492.20984										-273.71558	72.76012	-1371.21423	
